<svg xmlns="http://www.w3.org/2000/svg" version="1.1" xmlns:xlink="http://www.w3.org/1999/xlink" xmlns:svgjs="http://svgjs.com/svgjs" width="1440" height="560" preserveAspectRatio="none" viewBox="0 0 1440 560"><g mask="url(&quot;#SvgjsMask1551&quot;)" fill="none"><rect width="1440" height="560" x="0" y="0" fill="url(#SvgjsLinearGradient1552)"></rect><path d="M399 537L398 879" stroke-width="6" stroke="url(#SvgjsLinearGradient1553)" stroke-linecap="round" class="Up"></path><path d="M1418 404L1417 621" stroke-width="10" stroke="url(#SvgjsLinearGradient1554)" stroke-linecap="round" class="Down"></path><path d="M845 473L844 732" stroke-width="6" stroke="url(#SvgjsLinearGradient1554)" stroke-linecap="round" class="Down"></path><path d="M1294 125L1293 -106" stroke-width="8" stroke="url(#SvgjsLinearGradient1553)" stroke-linecap="round" class="Up"></path><path d="M902 90L901 -207" stroke-width="10" stroke="url(#SvgjsLinearGradient1554)" stroke-linecap="round" class="Down"></path><path d="M370 12L369 220" stroke-width="8" stroke="url(#SvgjsLinearGradient1553)" stroke-linecap="round" class="Up"></path><path d="M753 531L752 170" stroke-width="8" stroke="url(#SvgjsLinearGradient1553)" stroke-linecap="round" class="Up"></path><path d="M169 559L168 961" stroke-width="6" stroke="url(#SvgjsLinearGradient1553)" stroke-linecap="round" class="Up"></path><path d="M966 351L965 659" stroke-width="10" stroke="url(#SvgjsLinearGradient1554)" stroke-linecap="round" class="Down"></path><path d="M977 536L976 356" stroke-width="10" stroke="url(#SvgjsLinearGradient1553)" stroke-linecap="round" class="Up"></path><path d="M714 522L713 325" stroke-width="6" stroke="url(#SvgjsLinearGradient1553)" stroke-linecap="round" class="Up"></path><path d="M563 40L562 375" stroke-width="10" stroke="url(#SvgjsLinearGradient1553)" stroke-linecap="round" class="Up"></path><path d="M1128 440L1127 67" stroke-width="10" stroke="url(#SvgjsLinearGradient1553)" stroke-linecap="round" class="Up"></path><path d="M492 193L491 349" stroke-width="8" stroke="url(#SvgjsLinearGradient1554)" stroke-linecap="round" class="Down"></path><path d="M658 232L657 -46" stroke-width="6" stroke="url(#SvgjsLinearGradient1554)" stroke-linecap="round" class="Down"></path><path d="M5 440L4 693" stroke-width="10" stroke="url(#SvgjsLinearGradient1553)" stroke-linecap="round" class="Up"></path><path d="M1357 556L1356 336" stroke-width="6" stroke="url(#SvgjsLinearGradient1554)" stroke-linecap="round" class="Down"></path><path d="M1184 518L1183 365" stroke-width="10" stroke="url(#SvgjsLinearGradient1554)" stroke-linecap="round" class="Down"></path><path d="M126 502L125 359" stroke-width="10" stroke="url(#SvgjsLinearGradient1554)" stroke-linecap="round" class="Down"></path><path d="M290 169L289 566" stroke-width="8" stroke="url(#SvgjsLinearGradient1554)" stroke-linecap="round" class="Down"></path><path d="M1326 467L1325 753" stroke-width="10" stroke="url(#SvgjsLinearGradient1553)" stroke-linecap="round" class="Up"></path><path d="M1427 243L1426 -46" stroke-width="10" stroke="url(#SvgjsLinearGradient1554)" stroke-linecap="round" class="Down"></path><path d="M290 170L289 573" stroke-width="10" stroke="url(#SvgjsLinearGradient1554)" stroke-linecap="round" class="Down"></path><path d="M274 507L273 897" stroke-width="10" stroke="url(#SvgjsLinearGradient1554)" stroke-linecap="round" class="Down"></path><path d="M1426 458L1425 823" stroke-width="10" stroke="url(#SvgjsLinearGradient1554)" stroke-linecap="round" class="Down"></path><path d="M363 229L362 494" stroke-width="10" stroke="url(#SvgjsLinearGradient1553)" stroke-linecap="round" class="Up"></path><path d="M673 58L672 -124" stroke-width="8" stroke="url(#SvgjsLinearGradient1554)" stroke-linecap="round" class="Down"></path><path d="M1180 5L1179 -303" stroke-width="10" stroke="url(#SvgjsLinearGradient1553)" stroke-linecap="round" class="Up"></path><path d="M968 191L967 415" stroke-width="6" stroke="url(#SvgjsLinearGradient1553)" stroke-linecap="round" class="Up"></path><path d="M1108 346L1107 589" stroke-width="6" stroke="url(#SvgjsLinearGradient1553)" stroke-linecap="round" class="Up"></path><path d="M992 265L991 -120" stroke-width="10" stroke="url(#SvgjsLinearGradient1553)" stroke-linecap="round" class="Up"></path><path d="M581 496L580 771" stroke-width="8" stroke="url(#SvgjsLinearGradient1554)" stroke-linecap="round" class="Down"></path><path d="M933 105L932 -254" stroke-width="6" stroke="url(#SvgjsLinearGradient1553)" stroke-linecap="round" class="Up"></path><path d="M390 80L389 -67" stroke-width="10" stroke="url(#SvgjsLinearGradient1553)" stroke-linecap="round" class="Up"></path><path d="M695 271L694 101" stroke-width="10" stroke="url(#SvgjsLinearGradient1553)" stroke-linecap="round" class="Up"></path><path d="M557 498L556 705" stroke-width="10" stroke="url(#SvgjsLinearGradient1554)" stroke-linecap="round" class="Down"></path></g><defs><mask id="SvgjsMask1551"><rect width="1440" height="560" fill="#ffffff"></rect></mask><linearGradient x1="50%" y1="0%" x2="50%" y2="100%" gradientUnits="userSpaceOnUse" id="SvgjsLinearGradient1552"><stop stop-color="#0e2a47" offset="0"></stop><stop stop-color="rgba(33, 44, 59, 1)" offset="1"></stop></linearGradient><linearGradient x1="0%" y1="100%" x2="0%" y2="0%" id="SvgjsLinearGradient1553"><stop stop-color="rgba(28, 83, 142, 0)" offset="0"></stop><stop stop-color="#1c538e" offset="1"></stop></linearGradient><linearGradient x1="0%" y1="0%" x2="0%" y2="100%" id="SvgjsLinearGradient1554"><stop stop-color="rgba(28, 83, 142, 0)" offset="0"></stop><stop stop-color="#1c538e" offset="1"></stop></linearGradient></defs></svg>